<?xml version="1.0" encoding="utf-8"?>
<svg version="1.1" xmlns:xlink="http://www.w3.org/1999/xlink" width="68px" height="62px" xmlns="http://www.w3.org/2000/svg">
  <defs>
    <pattern id="BGPattern" patternUnits="userSpaceOnUse" alignment="0 0" imageRepeat="None" />
    <mask fill="white" id="Clip275">
      <path d="M 0 62  L 0 0  L 68 0  L 68 62  L 0 62  Z " fill-rule="evenodd" />
    </mask>
  </defs>
  <g transform="matrix(1 0 0 1 -681 -736 )">
    <path d="M 0 62  L 0 0  L 68 0  L 68 62  L 0 62  Z " fill-rule="nonzero" fill="rgba(242, 242, 242, 1)" stroke="none" transform="matrix(1 0 0 1 681 736 )" class="fill" />
    <path d="M 0 62  L 0 0  L 68 0  L 68 62  L 0 62  Z " stroke-width="2" stroke-dasharray="0" stroke="rgba(121, 121, 121, 1)" fill="none" transform="matrix(1 0 0 1 681 736 )" class="stroke" mask="url(#Clip275)" />
    <path d="M 67.59476615011205 0.3694779219566647  L 0.4052338498879548 61.630522078043334  M 0.4052338498879548 0.3694779219566647  L 67.59476615011205 61.630522078043334  " stroke-width="1" stroke-dasharray="0" stroke="rgba(121, 121, 121, 1)" fill="none" transform="matrix(1 0 0 1 681 736 )" class="stroke" />
  </g>
</svg>