<?xml version="1.0" encoding="utf-8"?>
<svg version="1.1" xmlns:xlink="http://www.w3.org/1999/xlink" width="76px" height="28px" xmlns="http://www.w3.org/2000/svg">
  <defs>
    <pattern id="BGPattern" patternUnits="userSpaceOnUse" alignment="0 0" imageRepeat="None" />
    <mask fill="white" id="Clip34">
      <path d="M 0 23  L 0 5  C 0 2.2000000000000455  1.9441860465116683 0  4.4186046511627906 0  L 71.5813953488372 0  C 74.05581395348833 0  76 2.2000000000000455  76 5  L 76 23  C 76 25.799999999999955  74.05581395348833 28  71.5813953488372 28  L 48.386922817661095 28  L 4.4186046511627906 28  C 1.9441860465116683 28  0 25.799999999999955  0 23  Z " fill-rule="evenodd" />
    </mask>
  </defs>
  <g transform="matrix(1 0 0 1 -523 -1157 )">
    <path d="M 0 23  L 0 5  C 0 2.2000000000000455  1.9441860465116683 0  4.4186046511627906 0  L 71.5813953488372 0  C 74.05581395348833 0  76 2.2000000000000455  76 5  L 76 23  C 76 25.799999999999955  74.05581395348833 28  71.5813953488372 28  L 48.386922817661095 28  L 4.4186046511627906 28  C 1.9441860465116683 28  0 25.799999999999955  0 23  Z " fill-rule="nonzero" fill="rgba(255, 255, 255, 1)" stroke="none" transform="matrix(1 0 0 1 523 1157 )" class="fill" />
    <path d="M 0 23  L 0 5  C 0 2.2000000000000455  1.9441860465116683 0  4.4186046511627906 0  L 71.5813953488372 0  C 74.05581395348833 0  76 2.2000000000000455  76 5  L 76 23  C 76 25.799999999999955  74.05581395348833 28  71.5813953488372 28  L 48.386922817661095 28  L 4.4186046511627906 28  C 1.9441860465116683 28  0 25.799999999999955  0 23  Z " stroke-width="2" stroke-dasharray="0" stroke="rgba(170, 170, 170, 1)" fill="none" transform="matrix(1 0 0 1 523 1157 )" class="stroke" mask="url(#Clip34)" />
  </g>
</svg>