<?xml version="1.0" encoding="utf-8"?>
<svg version="1.1" xmlns:xlink="http://www.w3.org/1999/xlink" width="45px" height="40px" xmlns="http://www.w3.org/2000/svg">
  <defs>
    <pattern id="BGPattern" patternUnits="userSpaceOnUse" alignment="0 0" imageRepeat="None" />
    <mask fill="white" id="Clip221">
      <path d="M 26.66015625 35.788690476190474  C 27.01171875 35.520833333333336  27.1875 35.13888888888889  27.1875 34.642857142857146  L 27 32.976190476190474  L 27 19.047619047619047  L 27.1875 13.333333333333336  L 17.8125 13.333333333333336  L 18 19.047619047619047  L 18 32.976190476190474  L 17.8125 34.642857142857146  C 17.8125 35.13888888888889  17.98828125 35.520833333333336  18.33984375 35.788690476190474  C 18.69140625 36.05654761904762  19.140625000000004 36.19047619047619  19.6875 36.19047619047619  L 25.3125 36.19047619047619  C 25.859375 36.19047619047619  26.30859375 36.05654761904762  26.66015625 35.788690476190474  Z M 11.8359375 8.69047619047619  C 12.382812500000002 9.24603174603174  13.046875000000002 9.523809523809526  13.828125 9.523809523809526  L 19.541015625 9.523809523809526  L 15.849609375 4.732142857142856  C 15.341796875000002 4.1170634920634885  14.66796875 3.8095238095238093  13.828125 3.8095238095238093  C 13.046875000000002 3.8095238095238093  12.382812500000002 4.087301587301586  11.8359375 4.642857142857144  C 11.289062500000002 5.198412698412693  11.015625 5.87301587301587  11.015625 6.666666666666665  C 11.015625 7.460317460317456  11.289062500000002 8.134920634920633  11.8359375 8.69047619047619  Z M 33.1640625 8.69047619047619  C 33.71093750000001 8.134920634920633  33.984375 7.460317460317456  33.984375 6.666666666666665  C 33.984375 5.87301587301587  33.71093750000001 5.198412698412693  33.1640625 4.642857142857144  C 32.6171875 4.087301587301586  31.953125000000004 3.8095238095238093  31.171875 3.8095238095238093  C 30.332031250000004 3.8095238095238093  29.658203125 4.1170634920634885  29.150390625 4.732142857142856  L 25.48828125 9.523809523809526  L 31.171875 9.523809523809526  C 31.953125000000004 9.523809523809526  32.6171875 9.24603174603174  33.1640625 8.69047619047619  Z M 44.736328125 13.601190476190474  C 44.912109375 13.779761904761907  45 14.007936507936506  45 14.285714285714285  L 45 23.80952380952381  C 45 24.087301587301585  44.912109375 24.31547619047619  44.736328125 24.49404761904762  C 44.560546875 24.672619047619047  44.33593750000001 24.761904761904763  44.0625 24.761904761904763  L 41 24.761904761904763  L 41 37.142857142857146  C 41.25 37.93650793650794  40.9765625 38.61111111111111  40.4296875 39.166666666666664  C 39.88281250000001 39.72222222222222  39.21875 40  38.4375 40  L 6.5625 40  C 5.781250000000001 40  5.117187500000001 39.72222222222222  4.5703125 39.166666666666664  C 4.0234375 38.61111111111111  3.75 37.93650793650794  4 37.142857142857146  L 4 24.761904761904763  L 0.9375 24.761904761904763  C 0.6640625000000001 24.761904761904763  0.43945312500000006 24.672619047619047  0.263671875 24.49404761904762  C 0.087890625 24.31547619047619  0 24.087301587301585  0 23.80952380952381  L 0 14.285714285714285  C 0 14.007936507936506  0.087890625 13.779761904761907  0.263671875 13.601190476190474  C 0.43945312500000006 13.422619047619047  0.6640625000000001 13.333333333333336  0.9375 14  L 13.828125 14  C 12.01171875 13.333333333333336  10.4638671875 12.683531746031743  9.1845703125 11.383928571428573  C 7.905273437500001 10.084325396825395  7.265625 8.511904761904763  7.265625 6.666666666666665  C 7.265625 4.821428571428572  7.905273437500001 3.2490079365079305  9.1845703125 1.9494047619047628  C 10.4638671875 0.6498015873015861  12.01171875 0  13.828125 0  C 15.91796875 0  17.558593750000004 0.763888888888884  18.75 2.291666666666665  L 22.5 7.202380952380953  L 26.25 2.291666666666665  C 27.44140625 0.763888888888884  29.082031250000004 0  31.171875 0  C 32.98828125 0  34.53613281250001 0.6498015873015861  35.8154296875 1.9494047619047628  C 37.09472656250001 3.2490079365079305  37.734375 4.821428571428572  37.734375 6.666666666666665  C 37.734375 8.511904761904763  37.09472656250001 10.084325396825395  35.8154296875 11.383928571428573  C 34.53613281250001 12.683531746031743  32.98828125 13.333333333333336  31.171875 14  L 44.0625 14  C 44.33593750000001 13.333333333333336  44.560546875 13.422619047619047  44.736328125 13.601190476190474  Z " fill-rule="evenodd" />
    </mask>
  </defs>
  <g transform="matrix(1 0 0 1 -36 -538 )">
    <path d="M 26.66015625 35.788690476190474  C 27.01171875 35.520833333333336  27.1875 35.13888888888889  27.1875 34.642857142857146  L 27 32.976190476190474  L 27 19.047619047619047  L 27.1875 13.333333333333336  L 17.8125 13.333333333333336  L 18 19.047619047619047  L 18 32.976190476190474  L 17.8125 34.642857142857146  C 17.8125 35.13888888888889  17.98828125 35.520833333333336  18.33984375 35.788690476190474  C 18.69140625 36.05654761904762  19.140625000000004 36.19047619047619  19.6875 36.19047619047619  L 25.3125 36.19047619047619  C 25.859375 36.19047619047619  26.30859375 36.05654761904762  26.66015625 35.788690476190474  Z M 11.8359375 8.69047619047619  C 12.382812500000002 9.24603174603174  13.046875000000002 9.523809523809526  13.828125 9.523809523809526  L 19.541015625 9.523809523809526  L 15.849609375 4.732142857142856  C 15.341796875000002 4.1170634920634885  14.66796875 3.8095238095238093  13.828125 3.8095238095238093  C 13.046875000000002 3.8095238095238093  12.382812500000002 4.087301587301586  11.8359375 4.642857142857144  C 11.289062500000002 5.198412698412693  11.015625 5.87301587301587  11.015625 6.666666666666665  C 11.015625 7.460317460317456  11.289062500000002 8.134920634920633  11.8359375 8.69047619047619  Z M 33.1640625 8.69047619047619  C 33.71093750000001 8.134920634920633  33.984375 7.460317460317456  33.984375 6.666666666666665  C 33.984375 5.87301587301587  33.71093750000001 5.198412698412693  33.1640625 4.642857142857144  C 32.6171875 4.087301587301586  31.953125000000004 3.8095238095238093  31.171875 3.8095238095238093  C 30.332031250000004 3.8095238095238093  29.658203125 4.1170634920634885  29.150390625 4.732142857142856  L 25.48828125 9.523809523809526  L 31.171875 9.523809523809526  C 31.953125000000004 9.523809523809526  32.6171875 9.24603174603174  33.1640625 8.69047619047619  Z M 44.736328125 13.601190476190474  C 44.912109375 13.779761904761907  45 14.007936507936506  45 14.285714285714285  L 45 23.80952380952381  C 45 24.087301587301585  44.912109375 24.31547619047619  44.736328125 24.49404761904762  C 44.560546875 24.672619047619047  44.33593750000001 24.761904761904763  44.0625 24.761904761904763  L 41 24.761904761904763  L 41 37.142857142857146  C 41.25 37.93650793650794  40.9765625 38.61111111111111  40.4296875 39.166666666666664  C 39.88281250000001 39.72222222222222  39.21875 40  38.4375 40  L 6.5625 40  C 5.781250000000001 40  5.117187500000001 39.72222222222222  4.5703125 39.166666666666664  C 4.0234375 38.61111111111111  3.75 37.93650793650794  4 37.142857142857146  L 4 24.761904761904763  L 0.9375 24.761904761904763  C 0.6640625000000001 24.761904761904763  0.43945312500000006 24.672619047619047  0.263671875 24.49404761904762  C 0.087890625 24.31547619047619  0 24.087301587301585  0 23.80952380952381  L 0 14.285714285714285  C 0 14.007936507936506  0.087890625 13.779761904761907  0.263671875 13.601190476190474  C 0.43945312500000006 13.422619047619047  0.6640625000000001 13.333333333333336  0.9375 14  L 13.828125 14  C 12.01171875 13.333333333333336  10.4638671875 12.683531746031743  9.1845703125 11.383928571428573  C 7.905273437500001 10.084325396825395  7.265625 8.511904761904763  7.265625 6.666666666666665  C 7.265625 4.821428571428572  7.905273437500001 3.2490079365079305  9.1845703125 1.9494047619047628  C 10.4638671875 0.6498015873015861  12.01171875 0  13.828125 0  C 15.91796875 0  17.558593750000004 0.763888888888884  18.75 2.291666666666665  L 22.5 7.202380952380953  L 26.25 2.291666666666665  C 27.44140625 0.763888888888884  29.082031250000004 0  31.171875 0  C 32.98828125 0  34.53613281250001 0.6498015873015861  35.8154296875 1.9494047619047628  C 37.09472656250001 3.2490079365079305  37.734375 4.821428571428572  37.734375 6.666666666666665  C 37.734375 8.511904761904763  37.09472656250001 10.084325396825395  35.8154296875 11.383928571428573  C 34.53613281250001 12.683531746031743  32.98828125 13.333333333333336  31.171875 14  L 44.0625 14  C 44.33593750000001 13.333333333333336  44.560546875 13.422619047619047  44.736328125 13.601190476190474  Z " fill-rule="nonzero" fill="rgba(95, 96, 95, 1)" stroke="none" transform="matrix(1 0 0 1 36 538 )" class="fill" />
    <path d="M 26.66015625 35.788690476190474  C 27.01171875 35.520833333333336  27.1875 35.13888888888889  27.1875 34.642857142857146  L 27 32.976190476190474  L 27 19.047619047619047  L 27.1875 13.333333333333336  L 17.8125 13.333333333333336  L 18 19.047619047619047  L 18 32.976190476190474  L 17.8125 34.642857142857146  C 17.8125 35.13888888888889  17.98828125 35.520833333333336  18.33984375 35.788690476190474  C 18.69140625 36.05654761904762  19.140625000000004 36.19047619047619  19.6875 36.19047619047619  L 25.3125 36.19047619047619  C 25.859375 36.19047619047619  26.30859375 36.05654761904762  26.66015625 35.788690476190474  Z " stroke-width="0" stroke-dasharray="0" stroke="rgba(255, 255, 255, 0)" fill="none" transform="matrix(1 0 0 1 36 538 )" class="stroke" mask="url(#Clip221)" />
    <path d="M 11.8359375 8.69047619047619  C 12.382812500000002 9.24603174603174  13.046875000000002 9.523809523809526  13.828125 9.523809523809526  L 19.541015625 9.523809523809526  L 15.849609375 4.732142857142856  C 15.341796875000002 4.1170634920634885  14.66796875 3.8095238095238093  13.828125 3.8095238095238093  C 13.046875000000002 3.8095238095238093  12.382812500000002 4.087301587301586  11.8359375 4.642857142857144  C 11.289062500000002 5.198412698412693  11.015625 5.87301587301587  11.015625 6.666666666666665  C 11.015625 7.460317460317456  11.289062500000002 8.134920634920633  11.8359375 8.69047619047619  Z " stroke-width="0" stroke-dasharray="0" stroke="rgba(255, 255, 255, 0)" fill="none" transform="matrix(1 0 0 1 36 538 )" class="stroke" mask="url(#Clip221)" />
    <path d="M 33.1640625 8.69047619047619  C 33.71093750000001 8.134920634920633  33.984375 7.460317460317456  33.984375 6.666666666666665  C 33.984375 5.87301587301587  33.71093750000001 5.198412698412693  33.1640625 4.642857142857144  C 32.6171875 4.087301587301586  31.953125000000004 3.8095238095238093  31.171875 3.8095238095238093  C 30.332031250000004 3.8095238095238093  29.658203125 4.1170634920634885  29.150390625 4.732142857142856  L 25.48828125 9.523809523809526  L 31.171875 9.523809523809526  C 31.953125000000004 9.523809523809526  32.6171875 9.24603174603174  33.1640625 8.69047619047619  Z " stroke-width="0" stroke-dasharray="0" stroke="rgba(255, 255, 255, 0)" fill="none" transform="matrix(1 0 0 1 36 538 )" class="stroke" mask="url(#Clip221)" />
    <path d="M 44.736328125 13.601190476190474  C 44.912109375 13.779761904761907  45 14.007936507936506  45 14.285714285714285  L 45 23.80952380952381  C 45 24.087301587301585  44.912109375 24.31547619047619  44.736328125 24.49404761904762  C 44.560546875 24.672619047619047  44.33593750000001 24.761904761904763  44.0625 24.761904761904763  L 41 24.761904761904763  L 41 37.142857142857146  C 41.25 37.93650793650794  40.9765625 38.61111111111111  40.4296875 39.166666666666664  C 39.88281250000001 39.72222222222222  39.21875 40  38.4375 40  L 6.5625 40  C 5.781250000000001 40  5.117187500000001 39.72222222222222  4.5703125 39.166666666666664  C 4.0234375 38.61111111111111  3.75 37.93650793650794  4 37.142857142857146  L 4 24.761904761904763  L 0.9375 24.761904761904763  C 0.6640625000000001 24.761904761904763  0.43945312500000006 24.672619047619047  0.263671875 24.49404761904762  C 0.087890625 24.31547619047619  0 24.087301587301585  0 23.80952380952381  L 0 14.285714285714285  C 0 14.007936507936506  0.087890625 13.779761904761907  0.263671875 13.601190476190474  C 0.43945312500000006 13.422619047619047  0.6640625000000001 13.333333333333336  0.9375 14  L 13.828125 14  C 12.01171875 13.333333333333336  10.4638671875 12.683531746031743  9.1845703125 11.383928571428573  C 7.905273437500001 10.084325396825395  7.265625 8.511904761904763  7.265625 6.666666666666665  C 7.265625 4.821428571428572  7.905273437500001 3.2490079365079305  9.1845703125 1.9494047619047628  C 10.4638671875 0.6498015873015861  12.01171875 0  13.828125 0  C 15.91796875 0  17.558593750000004 0.763888888888884  18.75 2.291666666666665  L 22.5 7.202380952380953  L 26.25 2.291666666666665  C 27.44140625 0.763888888888884  29.082031250000004 0  31.171875 0  C 32.98828125 0  34.53613281250001 0.6498015873015861  35.8154296875 1.9494047619047628  C 37.09472656250001 3.2490079365079305  37.734375 4.821428571428572  37.734375 6.666666666666665  C 37.734375 8.511904761904763  37.09472656250001 10.084325396825395  35.8154296875 11.383928571428573  C 34.53613281250001 12.683531746031743  32.98828125 13.333333333333336  31.171875 14  L 44.0625 14  C 44.33593750000001 13.333333333333336  44.560546875 13.422619047619047  44.736328125 13.601190476190474  Z " stroke-width="0" stroke-dasharray="0" stroke="rgba(255, 255, 255, 0)" fill="none" transform="matrix(1 0 0 1 36 538 )" class="stroke" mask="url(#Clip221)" />
  </g>
</svg>