<?xml version="1.0" encoding="utf-8"?>
<svg version="1.1" xmlns:xlink="http://www.w3.org/1999/xlink" width="12px" height="12px" viewBox="565 64.5 12 12" xmlns="http://www.w3.org/2000/svg">
  <path d="M 571 64.5  C 574.36 64.5  577 67.14  577 70.5  C 577 73.86  574.36 76.5  571 76.5  C 567.64 76.5  565 73.86  565 70.5  C 565 67.14  567.64 64.5  571 64.5  Z " fill-rule="nonzero" fill="rgba(240, 240, 240, 1)" stroke="none" class="fill" />
  <path d="M 571 65  C 574.08 65  576.5 67.42  576.5 70.5  C 576.5 73.58  574.08 76  571 76  C 567.92 76  565.5 73.58  565.5 70.5  C 565.5 67.42  567.92 65  571 65  Z " stroke-width="1" stroke-dasharray="0" stroke="rgba(121, 121, 121, 1)" fill="none" class="stroke" stroke-dashoffset="0.5" />
  <path d="M 571 73.5  C 569.32 73.5  568 72.18  568 70.5  C 568 68.82  569.32 67.5  571 67.5  C 572.68 67.5  574 68.82  574 70.5  C 574 72.18  572.68 73.5  571 73.5  " fill-rule="nonzero" fill="rgba(121, 121, 121, 1)" stroke="none" class="stroke btn_check" />
</svg>