<?xml version="1.0" encoding="utf-8"?>
<svg version="1.1" xmlns:xlink="http://www.w3.org/1999/xlink" width="27px" height="20px" xmlns="http://www.w3.org/2000/svg">
  <defs>
    <pattern id="BGPattern" patternUnits="userSpaceOnUse" alignment="0 0" imageRepeat="None" />
    <mask fill="white" id="Clip29">
      <path d="M 0 16  L 0 4  C 0 1.7599999999999998  1.7599999999999998 0  4 0  L 23 0  C 25.24 0  27 1.7599999999999998  27 4  L 27 16  C 27 18.240000000000002  25.24 20  23 20  L 4 20  C 1.7599999999999998 20  0 18.240000000000002  0 16  Z " fill-rule="evenodd" />
    </mask>
  </defs>
  <g transform="matrix(1 0 0 1 -179 -452 )">
    <path d="M 0 16  L 0 4  C 0 1.7599999999999998  1.7599999999999998 0  4 0  L 23 0  C 25.24 0  27 1.7599999999999998  27 4  L 27 16  C 27 18.240000000000002  25.24 20  23 20  L 4 20  C 1.7599999999999998 20  0 18.240000000000002  0 16  Z " fill-rule="nonzero" fill="rgba(245, 245, 245, 0)" stroke="none" transform="matrix(1 0 0 1 179 452 )" class="fill" />
    <path d="M 0 16  L 0 4  C 0 1.7599999999999998  1.7599999999999998 0  4 0  L 23 0  C 25.24 0  27 1.7599999999999998  27 4  L 27 16  C 27 18.240000000000002  25.24 20  23 20  L 4 20  C 1.7599999999999998 20  0 18.240000000000002  0 16  Z " stroke-width="2" stroke-dasharray="3,1" stroke="rgba(217, 217, 217, 1)" fill="none" transform="matrix(1 0 0 1 179 452 )" class="stroke" mask="url(#Clip29)" />
  </g>
</svg>