<?xml version="1.0" encoding="utf-8"?>
<svg version="1.1" xmlns:xlink="http://www.w3.org/1999/xlink" width="24px" height="24px" xmlns="http://www.w3.org/2000/svg">
  <defs>
    <pattern id="BGPattern" patternUnits="userSpaceOnUse" alignment="0 0" imageRepeat="None" />
    <mask fill="white" id="Clip30">
      <path d="M 23.4609375 14.148437500000002  C 23.559895833333336 14.247395833333334  23.609375 14.364583333333334  23.609375 14.500000000000002  C 23.609375 14.552083333333334  23.604166666666668 14.588541666666664  23.59375 14.609374999999998  C 22.927083333333336 17.401041666666664  21.53125 19.6640625  19.40625 21.3984375  C 17.28125 23.1328125  14.791666666666668 24  11.9375 24  C 10.416666666666668 24  8.9453125 23.713541666666668  7.5234375 23.140625  C 6.1015625 22.567708333333332  4.833333333333334 21.75  3.71875 20.6875  L 1.703125 22.703125  C 1.5052083333333335 22.901041666666668  1.2708333333333335 23  1 23  C 0.7291666666666667 23  0.49479166666666663 22.901041666666668  0.296875 22.703125  C 0.09895833333333334 22.505208333333332  0 22.270833333333332  0 22  L 0 15  C 0 14.729166666666664  0.09895833333333334 14.494791666666664  0.296875 14.296875  C 0.49479166666666663 14.09895833333333  0.7291666666666667 13.999999999999998  1 13.999999999999998  L 8 13.999999999999998  C 8.270833333333334 13.999999999999998  8.505208333333334 14.09895833333333  8.703125 14.296875  C 8.901041666666668 14.494791666666664  9 14.729166666666664  9 15  C 9 15.27083333333333  8.901041666666668 15.50520833333333  8.703125 15.703125  L 6.5625 17.84375  C 7.302083333333334 18.53125  8.140625 19.0625  9.078125 19.4375  C 10.015625 19.8125  10.989583333333334 20  12 20  C 13.395833333333332 20  14.697916666666668 19.661458333333332  15.90625 18.984375  C 17.114583333333336 18.307291666666664  18.083333333333336 17.375  18.8125 16.1875  C 18.927083333333336 16.010416666666664  19.203125 15.401041666666666  19.640625 14.359375000000002  C 19.723958333333336 14.119791666666664  19.880208333333336 13.999999999999998  20.109375 13.999999999999998  L 23.109375 13.999999999999998  C 23.244791666666668 13.999999999999998  23.361979166666668 14.049479166666664  23.4609375 14.148437500000002  Z M 23.703125 1.2968750000000009  C 23.901041666666664 1.4947916666666652  24 1.7291666666666652  24 2.000000000000001  L 24 9  C 24 9.270833333333332  23.901041666666664 9.505208333333332  23.703125 9.703125  C 23.505208333333336 9.901041666666668  23.270833333333336 10  23 10  L 16 10  C 15.729166666666668 10  15.494791666666668 9.901041666666668  15.296875 9.703125  C 15.098958333333336 9.505208333333332  15.000000000000004 9.270833333333332  15 9  C 15.000000000000004 8.729166666666664  15.098958333333336 8.494791666666664  15.296875 8.296875  L 17.453125 6.140625  C 15.911458333333336 4.713541666666663  14.09375 3.999999999999999  12 3.999999999999999  C 10.604166666666668 3.999999999999999  9.302083333333334 4.338541666666663  8.09375 5.015625  C 6.885416666666668 5.692708333333331  5.916666666666668 6.624999999999999  5.1875 7.812500000000001  C 5.072916666666667 7.989583333333331  4.796875 8.598958333333332  4.359375 9.640625  C 4.276041666666667 9.880208333333332  4.119791666666667 10  3.890625 10  L 0.78125 10  C 0.6458333333333333 10  0.5286458333333334 9.950520833333332  0.4296875 9.8515625  C 0.3307291666666667 9.752604166666666  0.28125 9.635416666666666  0.28125 9.5  L 0.28125 9.390625  C 0.9583333333333335 6.598958333333333  2.3645833333333335 4.3359375  4.5 2.6015625  C 6.635416666666668 0.8671875  9.135416666666668 0  12 0  C 13.520833333333334 0  15 0.2890625000000009  16.4375 0.8671875  C 17.875 1.4453124999999991  19.151041666666668 2.2604166666666643  20.265625 3.312500000000001  L 22.296875 1.2968750000000009  C 22.494791666666668 1.0989583333333313  22.729166666666668 0.9999999999999991  23 0.9999999999999991  C 23.270833333333336 0.9999999999999991  23.505208333333336 1.0989583333333313  23.703125 1.2968750000000009  Z " fill-rule="evenodd" />
    </mask>
  </defs>
  <g transform="matrix(1 0 0 1 -330 -15 )">
    <path d="M 23.4609375 14.148437500000002  C 23.559895833333336 14.247395833333334  23.609375 14.364583333333334  23.609375 14.500000000000002  C 23.609375 14.552083333333334  23.604166666666668 14.588541666666664  23.59375 14.609374999999998  C 22.927083333333336 17.401041666666664  21.53125 19.6640625  19.40625 21.3984375  C 17.28125 23.1328125  14.791666666666668 24  11.9375 24  C 10.416666666666668 24  8.9453125 23.713541666666668  7.5234375 23.140625  C 6.1015625 22.567708333333332  4.833333333333334 21.75  3.71875 20.6875  L 1.703125 22.703125  C 1.5052083333333335 22.901041666666668  1.2708333333333335 23  1 23  C 0.7291666666666667 23  0.49479166666666663 22.901041666666668  0.296875 22.703125  C 0.09895833333333334 22.505208333333332  0 22.270833333333332  0 22  L 0 15  C 0 14.729166666666664  0.09895833333333334 14.494791666666664  0.296875 14.296875  C 0.49479166666666663 14.09895833333333  0.7291666666666667 13.999999999999998  1 13.999999999999998  L 8 13.999999999999998  C 8.270833333333334 13.999999999999998  8.505208333333334 14.09895833333333  8.703125 14.296875  C 8.901041666666668 14.494791666666664  9 14.729166666666664  9 15  C 9 15.27083333333333  8.901041666666668 15.50520833333333  8.703125 15.703125  L 6.5625 17.84375  C 7.302083333333334 18.53125  8.140625 19.0625  9.078125 19.4375  C 10.015625 19.8125  10.989583333333334 20  12 20  C 13.395833333333332 20  14.697916666666668 19.661458333333332  15.90625 18.984375  C 17.114583333333336 18.307291666666664  18.083333333333336 17.375  18.8125 16.1875  C 18.927083333333336 16.010416666666664  19.203125 15.401041666666666  19.640625 14.359375000000002  C 19.723958333333336 14.119791666666664  19.880208333333336 13.999999999999998  20.109375 13.999999999999998  L 23.109375 13.999999999999998  C 23.244791666666668 13.999999999999998  23.361979166666668 14.049479166666664  23.4609375 14.148437500000002  Z M 23.703125 1.2968750000000009  C 23.901041666666664 1.4947916666666652  24 1.7291666666666652  24 2.000000000000001  L 24 9  C 24 9.270833333333332  23.901041666666664 9.505208333333332  23.703125 9.703125  C 23.505208333333336 9.901041666666668  23.270833333333336 10  23 10  L 16 10  C 15.729166666666668 10  15.494791666666668 9.901041666666668  15.296875 9.703125  C 15.098958333333336 9.505208333333332  15.000000000000004 9.270833333333332  15 9  C 15.000000000000004 8.729166666666664  15.098958333333336 8.494791666666664  15.296875 8.296875  L 17.453125 6.140625  C 15.911458333333336 4.713541666666663  14.09375 3.999999999999999  12 3.999999999999999  C 10.604166666666668 3.999999999999999  9.302083333333334 4.338541666666663  8.09375 5.015625  C 6.885416666666668 5.692708333333331  5.916666666666668 6.624999999999999  5.1875 7.812500000000001  C 5.072916666666667 7.989583333333331  4.796875 8.598958333333332  4.359375 9.640625  C 4.276041666666667 9.880208333333332  4.119791666666667 10  3.890625 10  L 0.78125 10  C 0.6458333333333333 10  0.5286458333333334 9.950520833333332  0.4296875 9.8515625  C 0.3307291666666667 9.752604166666666  0.28125 9.635416666666666  0.28125 9.5  L 0.28125 9.390625  C 0.9583333333333335 6.598958333333333  2.3645833333333335 4.3359375  4.5 2.6015625  C 6.635416666666668 0.8671875  9.135416666666668 0  12 0  C 13.520833333333334 0  15 0.2890625000000009  16.4375 0.8671875  C 17.875 1.4453124999999991  19.151041666666668 2.2604166666666643  20.265625 3.312500000000001  L 22.296875 1.2968750000000009  C 22.494791666666668 1.0989583333333313  22.729166666666668 0.9999999999999991  23 0.9999999999999991  C 23.270833333333336 0.9999999999999991  23.505208333333336 1.0989583333333313  23.703125 1.2968750000000009  Z " fill-rule="nonzero" fill="rgba(127, 127, 127, 1)" stroke="none" transform="matrix(1 0 0 1 330 15 )" class="fill" />
    <path d="M 23.4609375 14.148437500000002  C 23.559895833333336 14.247395833333334  23.609375 14.364583333333334  23.609375 14.500000000000002  C 23.609375 14.552083333333334  23.604166666666668 14.588541666666664  23.59375 14.609374999999998  C 22.927083333333336 17.401041666666664  21.53125 19.6640625  19.40625 21.3984375  C 17.28125 23.1328125  14.791666666666668 24  11.9375 24  C 10.416666666666668 24  8.9453125 23.713541666666668  7.5234375 23.140625  C 6.1015625 22.567708333333332  4.833333333333334 21.75  3.71875 20.6875  L 1.703125 22.703125  C 1.5052083333333335 22.901041666666668  1.2708333333333335 23  1 23  C 0.7291666666666667 23  0.49479166666666663 22.901041666666668  0.296875 22.703125  C 0.09895833333333334 22.505208333333332  0 22.270833333333332  0 22  L 0 15  C 0 14.729166666666664  0.09895833333333334 14.494791666666664  0.296875 14.296875  C 0.49479166666666663 14.09895833333333  0.7291666666666667 13.999999999999998  1 13.999999999999998  L 8 13.999999999999998  C 8.270833333333334 13.999999999999998  8.505208333333334 14.09895833333333  8.703125 14.296875  C 8.901041666666668 14.494791666666664  9 14.729166666666664  9 15  C 9 15.27083333333333  8.901041666666668 15.50520833333333  8.703125 15.703125  L 6.5625 17.84375  C 7.302083333333334 18.53125  8.140625 19.0625  9.078125 19.4375  C 10.015625 19.8125  10.989583333333334 20  12 20  C 13.395833333333332 20  14.697916666666668 19.661458333333332  15.90625 18.984375  C 17.114583333333336 18.307291666666664  18.083333333333336 17.375  18.8125 16.1875  C 18.927083333333336 16.010416666666664  19.203125 15.401041666666666  19.640625 14.359375000000002  C 19.723958333333336 14.119791666666664  19.880208333333336 13.999999999999998  20.109375 13.999999999999998  L 23.109375 13.999999999999998  C 23.244791666666668 13.999999999999998  23.361979166666668 14.049479166666664  23.4609375 14.148437500000002  Z " stroke-width="0" stroke-dasharray="0" stroke="rgba(255, 255, 255, 0)" fill="none" transform="matrix(1 0 0 1 330 15 )" class="stroke" mask="url(#Clip30)" />
    <path d="M 23.703125 1.2968750000000009  C 23.901041666666664 1.4947916666666652  24 1.7291666666666652  24 2.000000000000001  L 24 9  C 24 9.270833333333332  23.901041666666664 9.505208333333332  23.703125 9.703125  C 23.505208333333336 9.901041666666668  23.270833333333336 10  23 10  L 16 10  C 15.729166666666668 10  15.494791666666668 9.901041666666668  15.296875 9.703125  C 15.098958333333336 9.505208333333332  15.000000000000004 9.270833333333332  15 9  C 15.000000000000004 8.729166666666664  15.098958333333336 8.494791666666664  15.296875 8.296875  L 17.453125 6.140625  C 15.911458333333336 4.713541666666663  14.09375 3.999999999999999  12 3.999999999999999  C 10.604166666666668 3.999999999999999  9.302083333333334 4.338541666666663  8.09375 5.015625  C 6.885416666666668 5.692708333333331  5.916666666666668 6.624999999999999  5.1875 7.812500000000001  C 5.072916666666667 7.989583333333331  4.796875 8.598958333333332  4.359375 9.640625  C 4.276041666666667 9.880208333333332  4.119791666666667 10  3.890625 10  L 0.78125 10  C 0.6458333333333333 10  0.5286458333333334 9.950520833333332  0.4296875 9.8515625  C 0.3307291666666667 9.752604166666666  0.28125 9.635416666666666  0.28125 9.5  L 0.28125 9.390625  C 0.9583333333333335 6.598958333333333  2.3645833333333335 4.3359375  4.5 2.6015625  C 6.635416666666668 0.8671875  9.135416666666668 0  12 0  C 13.520833333333334 0  15 0.2890625000000009  16.4375 0.8671875  C 17.875 1.4453124999999991  19.151041666666668 2.2604166666666643  20.265625 3.312500000000001  L 22.296875 1.2968750000000009  C 22.494791666666668 1.0989583333333313  22.729166666666668 0.9999999999999991  23 0.9999999999999991  C 23.270833333333336 0.9999999999999991  23.505208333333336 1.0989583333333313  23.703125 1.2968750000000009  Z " stroke-width="0" stroke-dasharray="0" stroke="rgba(255, 255, 255, 0)" fill="none" transform="matrix(1 0 0 1 330 15 )" class="stroke" mask="url(#Clip30)" />
  </g>
</svg>