<?xml version="1.0" encoding="utf-8"?>
<svg version="1.1" xmlns:xlink="http://www.w3.org/1999/xlink" width="11px" height="11px" xmlns="http://www.w3.org/2000/svg">
  <defs>
    <pattern id="BGPattern" patternUnits="userSpaceOnUse" alignment="0 0" imageRepeat="None" />
    <mask fill="white" id="Clip93">
      <path d="M 7.857142857142858 2.357142857142857  L 10.410714285714285 2.357142857142857  C 10.574404761904763 2.357142857142857  10.713541666666668 2.4144345238095233  10.828125 2.529017857142857  C 10.942708333333334 2.643601190476189  11 2.782738095238095  11 2.946428571428572  L 11 10.410714285714285  C 11 10.574404761904763  10.942708333333334 10.713541666666666  10.828125 10.828125  C 10.713541666666668 10.942708333333334  10.574404761904763 11  10.410714285714285 11  L 4.517857142857142 11  C 4.354166666666667 11  4.215029761904762 10.942708333333334  4.100446428571429 10.828125  C 3.985863095238096 10.713541666666666  3.928571428571429 10.574404761904763  3.928571428571429 10.410714285714285  L 3.928571428571429 8.642857142857142  L 0.5892857142857143 8.642857142857142  C 0.4255952380952382 8.642857142857142  0.28645833333333337 8.585565476190476  0.171875 8.470982142857142  C 0.057291666666666664 8.35639880952381  0 8.217261904761905  0 8.053571428571429  L 0 3.928571428571428  C 0 3.7648809523809526  0.04092261904761905 3.584821428571428  0.12276785714285715 3.388392857142857  C 0.20461309523809523 3.1919642857142856  0.302827380952381 3.036458333333333  0.41741071428571425 2.921875  L 2.921875 0.41741071428571463  C 3.0364583333333335 0.3028273809523805  3.191964285714286 0.20461309523809512  3.388392857142857 0.12276785714285732  C 3.584821428571429 0.04092261904761951  3.7648809523809526 0  3.928571428571429 0  L 6.482142857142858 0  C 6.645833333333334 0  6.784970238095239 0.057291666666667074  6.899553571428572 0.171875  C 7.014136904761905 0.2864583333333329  7.071428571428572 0.4255952380952378  7.071428571428572 0.5892857142857146  L 7.071428571428572 2.602678571428572  C 7.349702380952381 2.438988095238095  7.611607142857142 2.357142857142857  7.857142857142858 2.357142857142857  Z M 7.071428571428572 5.5  L 7.071428571428572 3.6646205357142856  L 5.236049107142858 5.5  L 7.071428571428572 5.5  Z M 3.142857142857143 3.142857142857143  L 3.142857142857143 1.307477678571428  L 1.3074776785714286 3.142857142857143  L 3.142857142857143 3.142857142857143  Z M 4.051339285714286 5.745535714285714  C 4.133184523809524 5.549107142857142  4.23139880952381 5.39360119047619  4.345982142857142 5.279017857142858  L 6.285714285714286 3.3392857142857144  L 6.285714285714286 0.7857142857142854  L 3.928571428571429 0.7857142857142854  L 3.928571428571429 3.3392857142857144  C 3.928571428571429 3.502976190476189  3.8712797619047623 3.642113095238095  3.756696428571429 3.756696428571428  C 3.642113095238096 3.871279761904761  3.5029761904761907 3.928571428571428  3.339285714285714 3.928571428571428  L 0.7857142857142857 3.928571428571428  L 0.7857142857142857 7.857142857142858  L 3.928571428571429 7.857142857142858  L 3.928571428571429 6.285714285714286  C 3.928571428571429 6.12202380952381  3.9694940476190483 5.941964285714286  4.051339285714286 5.745535714285714  Z M 4.714285714285714 10.214285714285715  L 10.214285714285715 10.214285714285715  L 10.214285714285715 3.142857142857143  L 7.857142857142858 3.142857142857143  L 7.857142857142858 5.696428571428571  C 7.857142857142858 5.8601190476190474  7.799851190476192 5.999255952380951  7.685267857142858 6.113839285714286  C 7.570684523809525 6.2284226190476195  7.4315476190476195 6.285714285714286  7.267857142857142 6.285714285714286  L 4.714285714285714 6.285714285714286  L 4.714285714285714 10.214285714285715  Z " fill-rule="evenodd" />
    </mask>
  </defs>
  <g transform="matrix(1 0 0 1 -170 -225 )">
    <path d="M 7.857142857142858 2.357142857142857  L 10.410714285714285 2.357142857142857  C 10.574404761904763 2.357142857142857  10.713541666666668 2.4144345238095233  10.828125 2.529017857142857  C 10.942708333333334 2.643601190476189  11 2.782738095238095  11 2.946428571428572  L 11 10.410714285714285  C 11 10.574404761904763  10.942708333333334 10.713541666666666  10.828125 10.828125  C 10.713541666666668 10.942708333333334  10.574404761904763 11  10.410714285714285 11  L 4.517857142857142 11  C 4.354166666666667 11  4.215029761904762 10.942708333333334  4.100446428571429 10.828125  C 3.985863095238096 10.713541666666666  3.928571428571429 10.574404761904763  3.928571428571429 10.410714285714285  L 3.928571428571429 8.642857142857142  L 0.5892857142857143 8.642857142857142  C 0.4255952380952382 8.642857142857142  0.28645833333333337 8.585565476190476  0.171875 8.470982142857142  C 0.057291666666666664 8.35639880952381  0 8.217261904761905  0 8.053571428571429  L 0 3.928571428571428  C 0 3.7648809523809526  0.04092261904761905 3.584821428571428  0.12276785714285715 3.388392857142857  C 0.20461309523809523 3.1919642857142856  0.302827380952381 3.036458333333333  0.41741071428571425 2.921875  L 2.921875 0.41741071428571463  C 3.0364583333333335 0.3028273809523805  3.191964285714286 0.20461309523809512  3.388392857142857 0.12276785714285732  C 3.584821428571429 0.04092261904761951  3.7648809523809526 0  3.928571428571429 0  L 6.482142857142858 0  C 6.645833333333334 0  6.784970238095239 0.057291666666667074  6.899553571428572 0.171875  C 7.014136904761905 0.2864583333333329  7.071428571428572 0.4255952380952378  7.071428571428572 0.5892857142857146  L 7.071428571428572 2.602678571428572  C 7.349702380952381 2.438988095238095  7.611607142857142 2.357142857142857  7.857142857142858 2.357142857142857  Z M 7.071428571428572 5.5  L 7.071428571428572 3.6646205357142856  L 5.236049107142858 5.5  L 7.071428571428572 5.5  Z M 3.142857142857143 3.142857142857143  L 3.142857142857143 1.307477678571428  L 1.3074776785714286 3.142857142857143  L 3.142857142857143 3.142857142857143  Z M 4.051339285714286 5.745535714285714  C 4.133184523809524 5.549107142857142  4.23139880952381 5.39360119047619  4.345982142857142 5.279017857142858  L 6.285714285714286 3.3392857142857144  L 6.285714285714286 0.7857142857142854  L 3.928571428571429 0.7857142857142854  L 3.928571428571429 3.3392857142857144  C 3.928571428571429 3.502976190476189  3.8712797619047623 3.642113095238095  3.756696428571429 3.756696428571428  C 3.642113095238096 3.871279761904761  3.5029761904761907 3.928571428571428  3.339285714285714 3.928571428571428  L 0.7857142857142857 3.928571428571428  L 0.7857142857142857 7.857142857142858  L 3.928571428571429 7.857142857142858  L 3.928571428571429 6.285714285714286  C 3.928571428571429 6.12202380952381  3.9694940476190483 5.941964285714286  4.051339285714286 5.745535714285714  Z M 4.714285714285714 10.214285714285715  L 10.214285714285715 10.214285714285715  L 10.214285714285715 3.142857142857143  L 7.857142857142858 3.142857142857143  L 7.857142857142858 5.696428571428571  C 7.857142857142858 5.8601190476190474  7.799851190476192 5.999255952380951  7.685267857142858 6.113839285714286  C 7.570684523809525 6.2284226190476195  7.4315476190476195 6.285714285714286  7.267857142857142 6.285714285714286  L 4.714285714285714 6.285714285714286  L 4.714285714285714 10.214285714285715  Z " fill-rule="nonzero" fill="rgba(0, 0, 0, 1)" stroke="none" transform="matrix(1 0 0 1 170 225 )" class="fill" />
    <path d="M 7.857142857142858 2.357142857142857  L 10.410714285714285 2.357142857142857  C 10.574404761904763 2.357142857142857  10.713541666666668 2.4144345238095233  10.828125 2.529017857142857  C 10.942708333333334 2.643601190476189  11 2.782738095238095  11 2.946428571428572  L 11 10.410714285714285  C 11 10.574404761904763  10.942708333333334 10.713541666666666  10.828125 10.828125  C 10.713541666666668 10.942708333333334  10.574404761904763 11  10.410714285714285 11  L 4.517857142857142 11  C 4.354166666666667 11  4.215029761904762 10.942708333333334  4.100446428571429 10.828125  C 3.985863095238096 10.713541666666666  3.928571428571429 10.574404761904763  3.928571428571429 10.410714285714285  L 3.928571428571429 8.642857142857142  L 0.5892857142857143 8.642857142857142  C 0.4255952380952382 8.642857142857142  0.28645833333333337 8.585565476190476  0.171875 8.470982142857142  C 0.057291666666666664 8.35639880952381  0 8.217261904761905  0 8.053571428571429  L 0 3.928571428571428  C 0 3.7648809523809526  0.04092261904761905 3.584821428571428  0.12276785714285715 3.388392857142857  C 0.20461309523809523 3.1919642857142856  0.302827380952381 3.036458333333333  0.41741071428571425 2.921875  L 2.921875 0.41741071428571463  C 3.0364583333333335 0.3028273809523805  3.191964285714286 0.20461309523809512  3.388392857142857 0.12276785714285732  C 3.584821428571429 0.04092261904761951  3.7648809523809526 0  3.928571428571429 0  L 6.482142857142858 0  C 6.645833333333334 0  6.784970238095239 0.057291666666667074  6.899553571428572 0.171875  C 7.014136904761905 0.2864583333333329  7.071428571428572 0.4255952380952378  7.071428571428572 0.5892857142857146  L 7.071428571428572 2.602678571428572  C 7.349702380952381 2.438988095238095  7.611607142857142 2.357142857142857  7.857142857142858 2.357142857142857  Z " stroke-width="0" stroke-dasharray="0" stroke="rgba(255, 255, 255, 0)" fill="none" transform="matrix(1 0 0 1 170 225 )" class="stroke" mask="url(#Clip93)" />
    <path d="M 7.071428571428572 5.5  L 7.071428571428572 3.6646205357142856  L 5.236049107142858 5.5  L 7.071428571428572 5.5  Z " stroke-width="0" stroke-dasharray="0" stroke="rgba(255, 255, 255, 0)" fill="none" transform="matrix(1 0 0 1 170 225 )" class="stroke" mask="url(#Clip93)" />
    <path d="M 3.142857142857143 3.142857142857143  L 3.142857142857143 1.307477678571428  L 1.3074776785714286 3.142857142857143  L 3.142857142857143 3.142857142857143  Z " stroke-width="0" stroke-dasharray="0" stroke="rgba(255, 255, 255, 0)" fill="none" transform="matrix(1 0 0 1 170 225 )" class="stroke" mask="url(#Clip93)" />
    <path d="M 4.051339285714286 5.745535714285714  C 4.133184523809524 5.549107142857142  4.23139880952381 5.39360119047619  4.345982142857142 5.279017857142858  L 6.285714285714286 3.3392857142857144  L 6.285714285714286 0.7857142857142854  L 3.928571428571429 0.7857142857142854  L 3.928571428571429 3.3392857142857144  C 3.928571428571429 3.502976190476189  3.8712797619047623 3.642113095238095  3.756696428571429 3.756696428571428  C 3.642113095238096 3.871279761904761  3.5029761904761907 3.928571428571428  3.339285714285714 3.928571428571428  L 0.7857142857142857 3.928571428571428  L 0.7857142857142857 7.857142857142858  L 3.928571428571429 7.857142857142858  L 3.928571428571429 6.285714285714286  C 3.928571428571429 6.12202380952381  3.9694940476190483 5.941964285714286  4.051339285714286 5.745535714285714  Z " stroke-width="0" stroke-dasharray="0" stroke="rgba(255, 255, 255, 0)" fill="none" transform="matrix(1 0 0 1 170 225 )" class="stroke" mask="url(#Clip93)" />
    <path d="M 4.714285714285714 10.214285714285715  L 10.214285714285715 10.214285714285715  L 10.214285714285715 3.142857142857143  L 7.857142857142858 3.142857142857143  L 7.857142857142858 5.696428571428571  C 7.857142857142858 5.8601190476190474  7.799851190476192 5.999255952380951  7.685267857142858 6.113839285714286  C 7.570684523809525 6.2284226190476195  7.4315476190476195 6.285714285714286  7.267857142857142 6.285714285714286  L 4.714285714285714 6.285714285714286  L 4.714285714285714 10.214285714285715  Z " stroke-width="0" stroke-dasharray="0" stroke="rgba(255, 255, 255, 0)" fill="none" transform="matrix(1 0 0 1 170 225 )" class="stroke" mask="url(#Clip93)" />
  </g>
</svg>