<?xml version="1.0" encoding="utf-8"?>
<svg version="1.1" xmlns:xlink="http://www.w3.org/1999/xlink" width="10px" height="6px" xmlns="http://www.w3.org/2000/svg">
  <defs>
    <pattern id="BGPattern" patternUnits="userSpaceOnUse" alignment="0 0" imageRepeat="None" />
    <mask fill="white" id="Clip218">
      <path d="M 0 3  C 0 1.3199999999999998  2.1999999999999997 0  5 0  C 7.800000000000001 0  10 1.3199999999999998  10 3  C 10 4.68  7.800000000000001 6  5 6  C 2.1999999999999997 6  0 4.68  0 3  Z " fill-rule="evenodd" />
    </mask>
  </defs>
  <g transform="matrix(1 0 0 1 -821 -76 )">
    <path d="M 0 3  C 0 1.3199999999999998  2.1999999999999997 0  5 0  C 7.800000000000001 0  10 1.3199999999999998  10 3  C 10 4.68  7.800000000000001 6  5 6  C 2.1999999999999997 6  0 4.68  0 3  Z " fill-rule="nonzero" fill="rgba(245, 154, 35, 1)" stroke="none" transform="matrix(1 0 0 1 821 76 )" class="fill" />
    <path d="M 0 3  C 0 1.3199999999999998  2.1999999999999997 0  5 0  C 7.800000000000001 0  10 1.3199999999999998  10 3  C 10 4.68  7.800000000000001 6  5 6  C 2.1999999999999997 6  0 4.68  0 3  Z " stroke-width="0" stroke-dasharray="0" stroke="rgba(152, 216, 125, 1)" fill="none" transform="matrix(1 0 0 1 821 76 )" class="stroke" mask="url(#Clip218)" />
  </g>
</svg>