<?xml version="1.0" encoding="utf-8"?>
<svg version="1.1" xmlns:xlink="http://www.w3.org/1999/xlink" width="8px" height="5px" xmlns="http://www.w3.org/2000/svg">
  <defs>
    <pattern id="BGPattern" patternUnits="userSpaceOnUse" alignment="0 0" imageRepeat="None" />
    <mask fill="white" id="Clip219">
      <path d="M 0 2.5  C 0 1.0999999999999999  1.7599999999999998 0  4 0  C 6.24 0  8 1.0999999999999999  8 2.5  C 8 3.9000000000000004  6.24 5  4 5  C 1.7599999999999998 5  0 3.9000000000000004  0 2.5  Z " fill-rule="evenodd" />
    </mask>
  </defs>
  <g transform="matrix(1 0 0 1 -1186 -77 )">
    <path d="M 0 2.5  C 0 1.0999999999999999  1.7599999999999998 0  4 0  C 6.24 0  8 1.0999999999999999  8 2.5  C 8 3.9000000000000004  6.24 5  4 5  C 1.7599999999999998 5  0 3.9000000000000004  0 2.5  Z " fill-rule="nonzero" fill="rgba(59, 161, 255, 1)" stroke="none" transform="matrix(1 0 0 1 1186 77 )" class="fill" />
    <path d="M 0 2.5  C 0 1.0999999999999999  1.7599999999999998 0  4 0  C 6.24 0  8 1.0999999999999999  8 2.5  C 8 3.9000000000000004  6.24 5  4 5  C 1.7599999999999998 5  0 3.9000000000000004  0 2.5  Z " stroke-width="0" stroke-dasharray="0" stroke="rgba(152, 216, 125, 1)" fill="none" transform="matrix(1 0 0 1 1186 77 )" class="stroke" mask="url(#Clip219)" />
  </g>
</svg>