<?xml version="1.0" encoding="utf-8"?>
<svg version="1.1" xmlns:xlink="http://www.w3.org/1999/xlink" width="13px" height="13px" viewBox="235 421 13 13" xmlns="http://www.w3.org/2000/svg">
  <path d="M 241.5 421  C 245.14 421  248 423.86  248 427.5  C 248 431.14  245.14 434  241.5 434  C 237.86 434  235 431.14  235 427.5  C 235 423.86  237.86 421  241.5 421  Z " fill-rule="nonzero" fill="rgba(255, 255, 255, 1)" stroke="none" class="fill" />
  <path d="M 241.5 421.5  C 244.86 421.5  247.5 424.14  247.5 427.5  C 247.5 430.86  244.86 433.5  241.5 433.5  C 238.14 433.5  235.5 430.86  235.5 427.5  C 235.5 424.14  238.14 421.5  241.5 421.5  Z " stroke-width="1" stroke-dasharray="0" stroke="rgba(121, 121, 121, 1)" fill="none" class="stroke" stroke-dashoffset="0.5" />
  <path d="M 241.5 430.75  C 239.68 430.75  238.25 429.32  238.25 427.5  C 238.25 425.68  239.68 424.25  241.5 424.25  C 243.32 424.25  244.75 425.68  244.75 427.5  C 244.75 429.32  243.32 430.75  241.5 430.75  " fill-rule="nonzero" fill="rgba(121, 121, 121, 1)" stroke="none" class="stroke btn_check" />
</svg>