<?xml version="1.0" encoding="utf-8"?>
<svg version="1.1" xmlns:xlink="http://www.w3.org/1999/xlink" width="3px" height="18px" xmlns="http://www.w3.org/2000/svg">
  <defs>
    <pattern id="BGPattern" patternUnits="userSpaceOnUse" alignment="0 0" imageRepeat="None" />
    <mask fill="white" id="Clip75">
      <path d="M 2.78125 13.448863636363635  C 2.927083333333333 13.687499999999996  3 13.977272727272727  3 14.318181818181817  L 3 16.772727272727273  C 3 17.113636363636363  2.927083333333333 17.40340909090909  2.78125 17.642045454545453  C 2.635416666666667 17.88068181818182  2.4583333333333335 18  2.25 18  L 0.75 18  C 0.5416666666666667 18  0.36458333333333337 17.88068181818182  0.21875 17.642045454545453  C 0.07291666666666666 17.40340909090909  0 17.113636363636363  0 16.772727272727273  L 0 14.318181818181817  C 0 13.977272727272727  0.07291666666666666 13.687499999999996  0.21875 13.448863636363635  C 0.36458333333333337 13.210227272727275  0.5416666666666667 13.090909090909092  0.75 13.090909090909092  L 2.25 13.090909090909092  C 2.4583333333333335 13.090909090909092  2.635416666666667 13.210227272727275  2.78125 13.448863636363635  Z M 2.78125 6.903409090909092  C 2.927083333333333 7.1420454545454515  3 7.431818181818182  3 7.772727272727272  L 3 10.227272727272727  C 3 10.568181818181818  2.927083333333333 10.857954545454545  2.78125 11.096590909090908  C 2.635416666666667 11.335227272727272  2.4583333333333335 11.454545454545455  2.25 11.454545454545455  L 0.75 11.454545454545455  C 0.5416666666666667 11.454545454545455  0.36458333333333337 11.335227272727272  0.21875 11.096590909090908  C 0.07291666666666666 10.857954545454545  0 10.568181818181818  0 10.227272727272727  L 0 7.772727272727272  C 0 7.431818181818182  0.07291666666666666 7.1420454545454515  0.21875 6.903409090909092  C 0.36458333333333337 6.664772727272727  0.5416666666666667 6.545454545454546  0.75 6.545454545454546  L 2.25 6.545454545454546  C 2.4583333333333335 6.545454545454546  2.635416666666667 6.664772727272727  2.78125 6.903409090909092  Z M 2.78125 0.35795454545454564  C 2.927083333333333 0.5965909090909081  3 0.8863636363636356  3 1.2272727272727282  L 3 3.6818181818181825  C 3 4.022727272727272  2.927083333333333 4.312499999999998  2.78125 4.551136363636363  C 2.635416666666667 4.789772727272726  2.4583333333333335 4.909090909090908  2.25 4.909090909090908  L 0.75 4.909090909090908  C 0.5416666666666667 4.909090909090908  0.36458333333333337 4.789772727272726  0.21875 4.551136363636363  C 0.07291666666666666 4.312499999999998  0 4.022727272727272  0 3.6818181818181825  L 0 1.2272727272727282  C 0 0.8863636363636356  0.07291666666666666 0.5965909090909081  0.21875 0.35795454545454564  C 0.36458333333333337 0.11931818181818121  0.5416666666666667 0  0.75 0  L 2.25 0  C 2.4583333333333335 0  2.635416666666667 0.11931818181818121  2.78125 0.35795454545454564  Z " fill-rule="evenodd" />
    </mask>
  </defs>
  <g transform="matrix(1 0 0 1 -1240 -137 )">
    <path d="M 2.78125 13.448863636363635  C 2.927083333333333 13.687499999999996  3 13.977272727272727  3 14.318181818181817  L 3 16.772727272727273  C 3 17.113636363636363  2.927083333333333 17.40340909090909  2.78125 17.642045454545453  C 2.635416666666667 17.88068181818182  2.4583333333333335 18  2.25 18  L 0.75 18  C 0.5416666666666667 18  0.36458333333333337 17.88068181818182  0.21875 17.642045454545453  C 0.07291666666666666 17.40340909090909  0 17.113636363636363  0 16.772727272727273  L 0 14.318181818181817  C 0 13.977272727272727  0.07291666666666666 13.687499999999996  0.21875 13.448863636363635  C 0.36458333333333337 13.210227272727275  0.5416666666666667 13.090909090909092  0.75 13.090909090909092  L 2.25 13.090909090909092  C 2.4583333333333335 13.090909090909092  2.635416666666667 13.210227272727275  2.78125 13.448863636363635  Z M 2.78125 6.903409090909092  C 2.927083333333333 7.1420454545454515  3 7.431818181818182  3 7.772727272727272  L 3 10.227272727272727  C 3 10.568181818181818  2.927083333333333 10.857954545454545  2.78125 11.096590909090908  C 2.635416666666667 11.335227272727272  2.4583333333333335 11.454545454545455  2.25 11.454545454545455  L 0.75 11.454545454545455  C 0.5416666666666667 11.454545454545455  0.36458333333333337 11.335227272727272  0.21875 11.096590909090908  C 0.07291666666666666 10.857954545454545  0 10.568181818181818  0 10.227272727272727  L 0 7.772727272727272  C 0 7.431818181818182  0.07291666666666666 7.1420454545454515  0.21875 6.903409090909092  C 0.36458333333333337 6.664772727272727  0.5416666666666667 6.545454545454546  0.75 6.545454545454546  L 2.25 6.545454545454546  C 2.4583333333333335 6.545454545454546  2.635416666666667 6.664772727272727  2.78125 6.903409090909092  Z M 2.78125 0.35795454545454564  C 2.927083333333333 0.5965909090909081  3 0.8863636363636356  3 1.2272727272727282  L 3 3.6818181818181825  C 3 4.022727272727272  2.927083333333333 4.312499999999998  2.78125 4.551136363636363  C 2.635416666666667 4.789772727272726  2.4583333333333335 4.909090909090908  2.25 4.909090909090908  L 0.75 4.909090909090908  C 0.5416666666666667 4.909090909090908  0.36458333333333337 4.789772727272726  0.21875 4.551136363636363  C 0.07291666666666666 4.312499999999998  0 4.022727272727272  0 3.6818181818181825  L 0 1.2272727272727282  C 0 0.8863636363636356  0.07291666666666666 0.5965909090909081  0.21875 0.35795454545454564  C 0.36458333333333337 0.11931818181818121  0.5416666666666667 0  0.75 0  L 2.25 0  C 2.4583333333333335 0  2.635416666666667 0.11931818181818121  2.78125 0.35795454545454564  Z " fill-rule="nonzero" fill="rgba(0, 0, 0, 1)" stroke="none" transform="matrix(1 0 0 1 1240 137 )" class="fill" />
    <path d="M 2.78125 13.448863636363635  C 2.927083333333333 13.687499999999996  3 13.977272727272727  3 14.318181818181817  L 3 16.772727272727273  C 3 17.113636363636363  2.927083333333333 17.40340909090909  2.78125 17.642045454545453  C 2.635416666666667 17.88068181818182  2.4583333333333335 18  2.25 18  L 0.75 18  C 0.5416666666666667 18  0.36458333333333337 17.88068181818182  0.21875 17.642045454545453  C 0.07291666666666666 17.40340909090909  0 17.113636363636363  0 16.772727272727273  L 0 14.318181818181817  C 0 13.977272727272727  0.07291666666666666 13.687499999999996  0.21875 13.448863636363635  C 0.36458333333333337 13.210227272727275  0.5416666666666667 13.090909090909092  0.75 13.090909090909092  L 2.25 13.090909090909092  C 2.4583333333333335 13.090909090909092  2.635416666666667 13.210227272727275  2.78125 13.448863636363635  Z " stroke-width="0" stroke-dasharray="0" stroke="rgba(255, 255, 255, 0)" fill="none" transform="matrix(1 0 0 1 1240 137 )" class="stroke" mask="url(#Clip75)" />
    <path d="M 2.78125 6.903409090909092  C 2.927083333333333 7.1420454545454515  3 7.431818181818182  3 7.772727272727272  L 3 10.227272727272727  C 3 10.568181818181818  2.927083333333333 10.857954545454545  2.78125 11.096590909090908  C 2.635416666666667 11.335227272727272  2.4583333333333335 11.454545454545455  2.25 11.454545454545455  L 0.75 11.454545454545455  C 0.5416666666666667 11.454545454545455  0.36458333333333337 11.335227272727272  0.21875 11.096590909090908  C 0.07291666666666666 10.857954545454545  0 10.568181818181818  0 10.227272727272727  L 0 7.772727272727272  C 0 7.431818181818182  0.07291666666666666 7.1420454545454515  0.21875 6.903409090909092  C 0.36458333333333337 6.664772727272727  0.5416666666666667 6.545454545454546  0.75 6.545454545454546  L 2.25 6.545454545454546  C 2.4583333333333335 6.545454545454546  2.635416666666667 6.664772727272727  2.78125 6.903409090909092  Z " stroke-width="0" stroke-dasharray="0" stroke="rgba(255, 255, 255, 0)" fill="none" transform="matrix(1 0 0 1 1240 137 )" class="stroke" mask="url(#Clip75)" />
    <path d="M 2.78125 0.35795454545454564  C 2.927083333333333 0.5965909090909081  3 0.8863636363636356  3 1.2272727272727282  L 3 3.6818181818181825  C 3 4.022727272727272  2.927083333333333 4.312499999999998  2.78125 4.551136363636363  C 2.635416666666667 4.789772727272726  2.4583333333333335 4.909090909090908  2.25 4.909090909090908  L 0.75 4.909090909090908  C 0.5416666666666667 4.909090909090908  0.36458333333333337 4.789772727272726  0.21875 4.551136363636363  C 0.07291666666666666 4.312499999999998  0 4.022727272727272  0 3.6818181818181825  L 0 1.2272727272727282  C 0 0.8863636363636356  0.07291666666666666 0.5965909090909081  0.21875 0.35795454545454564  C 0.36458333333333337 0.11931818181818121  0.5416666666666667 0  0.75 0  L 2.25 0  C 2.4583333333333335 0  2.635416666666667 0.11931818181818121  2.78125 0.35795454545454564  Z " stroke-width="0" stroke-dasharray="0" stroke="rgba(255, 255, 255, 0)" fill="none" transform="matrix(1 0 0 1 1240 137 )" class="stroke" mask="url(#Clip75)" />
  </g>
</svg>