<?xml version="1.0" encoding="utf-8"?>
<svg version="1.1" xmlns:xlink="http://www.w3.org/1999/xlink" width="13px" height="13px" viewBox="179 131 13 13" xmlns="http://www.w3.org/2000/svg">
  <path d="M 185.5 131  C 189.14 131  192 133.86  192 137.5  C 192 141.14  189.14 144  185.5 144  C 181.86 144  179 141.14  179 137.5  C 179 133.86  181.86 131  185.5 131  Z " fill-rule="nonzero" fill="rgba(255, 255, 255, 1)" stroke="none" class="fill" />
  <path d="M 185.5 131.5  C 188.86 131.5  191.5 134.14  191.5 137.5  C 191.5 140.86  188.86 143.5  185.5 143.5  C 182.14 143.5  179.5 140.86  179.5 137.5  C 179.5 134.14  182.14 131.5  185.5 131.5  Z " stroke-width="1" stroke-dasharray="0" stroke="rgba(121, 121, 121, 1)" fill="none" class="stroke" stroke-dashoffset="0.5" />
  <path d="M 185.5 140.75  C 183.68 140.75  182.25 139.32  182.25 137.5  C 182.25 135.68  183.68 134.25  185.5 134.25  C 187.32 134.25  188.75 135.68  188.75 137.5  C 188.75 139.32  187.32 140.75  185.5 140.75  " fill-rule="nonzero" fill="rgba(121, 121, 121, 1)" stroke="none" class="stroke btn_check" />
</svg>