<?xml version="1.0" encoding="utf-8"?>
<svg version="1.1" xmlns:xlink="http://www.w3.org/1999/xlink" width="13px" height="13px" viewBox="112 131 13 13" xmlns="http://www.w3.org/2000/svg">
  <path d="M 118.5 131  C 122.14 131  125 133.86  125 137.5  C 125 141.14  122.14 144  118.5 144  C 114.86 144  112 141.14  112 137.5  C 112 133.86  114.86 131  118.5 131  Z " fill-rule="nonzero" fill="rgba(240, 240, 240, 1)" stroke="none" class="fill" />
  <path d="M 118.5 131.5  C 121.86 131.5  124.5 134.14  124.5 137.5  C 124.5 140.86  121.86 143.5  118.5 143.5  C 115.14 143.5  112.5 140.86  112.5 137.5  C 112.5 134.14  115.14 131.5  118.5 131.5  Z " stroke-width="1" stroke-dasharray="0" stroke="rgba(121, 121, 121, 1)" fill="none" class="stroke" stroke-dashoffset="0.5" />
  <path d="M 118.5 140.75  C 116.68 140.75  115.25 139.32  115.25 137.5  C 115.25 135.68  116.68 134.25  118.5 134.25  C 120.32 134.25  121.75 135.68  121.75 137.5  C 121.75 139.32  120.32 140.75  118.5 140.75  " fill-rule="nonzero" fill="rgba(121, 121, 121, 1)" stroke="none" class="stroke btn_check" />
</svg>