<?xml version="1.0" encoding="utf-8"?>
<svg version="1.1" xmlns:xlink="http://www.w3.org/1999/xlink" width="13px" height="13px" viewBox="183 796 13 13" xmlns="http://www.w3.org/2000/svg">
  <path d="M 189.5 796  C 193.14 796  196 798.86  196 802.5  C 196 806.14  193.14 809  189.5 809  C 185.86 809  183 806.14  183 802.5  C 183 798.86  185.86 796  189.5 796  Z " fill-rule="nonzero" fill="rgba(240, 240, 240, 1)" stroke="none" class="fill" />
  <path d="M 189.5 796.5  C 192.86 796.5  195.5 799.14  195.5 802.5  C 195.5 805.86  192.86 808.5  189.5 808.5  C 186.14 808.5  183.5 805.86  183.5 802.5  C 183.5 799.14  186.14 796.5  189.5 796.5  Z " stroke-width="1" stroke-dasharray="0" stroke="rgba(121, 121, 121, 1)" fill="none" class="stroke" stroke-dashoffset="0.5" />
  <path d="M 189.5 805.75  C 187.68 805.75  186.25 804.32  186.25 802.5  C 186.25 800.68  187.68 799.25  189.5 799.25  C 191.32 799.25  192.75 800.68  192.75 802.5  C 192.75 804.32  191.32 805.75  189.5 805.75  " fill-rule="nonzero" fill="rgba(121, 121, 121, 1)" stroke="none" class="stroke btn_check" />
</svg>