<?xml version="1.0" encoding="utf-8"?>
<svg version="1.1" xmlns:xlink="http://www.w3.org/1999/xlink" width="13px" height="13px" viewBox="116 796 13 13" xmlns="http://www.w3.org/2000/svg">
  <path d="M 122.5 796  C 126.14 796  129 798.86  129 802.5  C 129 806.14  126.14 809  122.5 809  C 118.86 809  116 806.14  116 802.5  C 116 798.86  118.86 796  122.5 796  Z " fill-rule="nonzero" fill="rgba(240, 240, 240, 1)" stroke="none" class="fill" />
  <path d="M 122.5 796.5  C 125.86 796.5  128.5 799.14  128.5 802.5  C 128.5 805.86  125.86 808.5  122.5 808.5  C 119.14 808.5  116.5 805.86  116.5 802.5  C 116.5 799.14  119.14 796.5  122.5 796.5  Z " stroke-width="1" stroke-dasharray="0" stroke="rgba(121, 121, 121, 1)" fill="none" class="stroke" stroke-dashoffset="0.5" />
  <path d="M 122.5 805.75  C 120.68 805.75  119.25 804.32  119.25 802.5  C 119.25 800.68  120.68 799.25  122.5 799.25  C 124.32 799.25  125.75 800.68  125.75 802.5  C 125.75 804.32  124.32 805.75  122.5 805.75  " fill-rule="nonzero" fill="rgba(121, 121, 121, 1)" stroke="none" class="stroke btn_check" />
</svg>