<?xml version="1.0" encoding="utf-8"?>
<svg version="1.1" xmlns:xlink="http://www.w3.org/1999/xlink" width="13px" height="13px" viewBox="510 1366 13 13" xmlns="http://www.w3.org/2000/svg">
  <path d="M 516.5 1366  C 520.14 1366  523 1368.86  523 1372.5  C 523 1376.14  520.14 1379  516.5 1379  C 512.86 1379  510 1376.14  510 1372.5  C 510 1368.86  512.86 1366  516.5 1366  Z " fill-rule="nonzero" fill="rgba(240, 240, 240, 1)" stroke="none" class="fill" />
  <path d="M 516.5 1366.5  C 519.86 1366.5  522.5 1369.14  522.5 1372.5  C 522.5 1375.86  519.86 1378.5  516.5 1378.5  C 513.14 1378.5  510.5 1375.86  510.5 1372.5  C 510.5 1369.14  513.14 1366.5  516.5 1366.5  Z " stroke-width="1" stroke-dasharray="0" stroke="rgba(121, 121, 121, 1)" fill="none" class="stroke" stroke-dashoffset="0.5" />
  <path d="M 516.5 1375.75  C 514.68 1375.75  513.25 1374.32  513.25 1372.5  C 513.25 1370.68  514.68 1369.25  516.5 1369.25  C 518.32 1369.25  519.75 1370.68  519.75 1372.5  C 519.75 1374.32  518.32 1375.75  516.5 1375.75  " fill-rule="nonzero" fill="rgba(121, 121, 121, 1)" stroke="none" class="stroke btn_check" />
</svg>