<?xml version="1.0" encoding="utf-8"?>
<svg version="1.1" xmlns:xlink="http://www.w3.org/1999/xlink" width="13px" height="13px" viewBox="237 771 13 13" xmlns="http://www.w3.org/2000/svg">
  <path d="M 243.5 771  C 247.14 771  250 773.86  250 777.5  C 250 781.14  247.14 784  243.5 784  C 239.86 784  237 781.14  237 777.5  C 237 773.86  239.86 771  243.5 771  Z " fill-rule="nonzero" fill="rgba(255, 255, 255, 1)" stroke="none" class="fill" />
  <path d="M 243.5 771.5  C 246.86 771.5  249.5 774.14  249.5 777.5  C 249.5 780.86  246.86 783.5  243.5 783.5  C 240.14 783.5  237.5 780.86  237.5 777.5  C 237.5 774.14  240.14 771.5  243.5 771.5  Z " stroke-width="1" stroke-dasharray="0" stroke="rgba(121, 121, 121, 1)" fill="none" class="stroke" stroke-dashoffset="0.5" />
  <path d="M 243.5 780.75  C 241.68 780.75  240.25 779.32  240.25 777.5  C 240.25 775.68  241.68 774.25  243.5 774.25  C 245.32 774.25  246.75 775.68  246.75 777.5  C 246.75 779.32  245.32 780.75  243.5 780.75  " fill-rule="nonzero" fill="rgba(121, 121, 121, 1)" stroke="none" class="stroke btn_check" />
</svg>