<?xml version="1.0" encoding="utf-8"?>
<svg version="1.1" xmlns:xlink="http://www.w3.org/1999/xlink" width="13px" height="13px" viewBox="530 715 13 13" xmlns="http://www.w3.org/2000/svg">
  <path d="M 536.5 715  C 540.14 715  543 717.86  543 721.5  C 543 725.14  540.14 728  536.5 728  C 532.86 728  530 725.14  530 721.5  C 530 717.86  532.86 715  536.5 715  Z " fill-rule="nonzero" fill="rgba(255, 255, 255, 1)" stroke="none" class="fill" />
  <path d="M 536.5 715.5  C 539.86 715.5  542.5 718.14  542.5 721.5  C 542.5 724.86  539.86 727.5  536.5 727.5  C 533.14 727.5  530.5 724.86  530.5 721.5  C 530.5 718.14  533.14 715.5  536.5 715.5  Z " stroke-width="1" stroke-dasharray="0" stroke="rgba(121, 121, 121, 1)" fill="none" class="stroke" stroke-dashoffset="0.5" />
  <path d="M 536.5 724.75  C 534.68 724.75  533.25 723.32  533.25 721.5  C 533.25 719.68  534.68 718.25  536.5 718.25  C 538.32 718.25  539.75 719.68  539.75 721.5  C 539.75 723.32  538.32 724.75  536.5 724.75  " fill-rule="nonzero" fill="rgba(121, 121, 121, 1)" stroke="none" class="stroke btn_check" />
</svg>