<?xml version="1.0" encoding="utf-8"?>
<svg version="1.1" xmlns:xlink="http://www.w3.org/1999/xlink" width="13px" height="13px" viewBox="192 771 13 13" xmlns="http://www.w3.org/2000/svg">
  <path d="M 198.5 771  C 202.14 771  205 773.86  205 777.5  C 205 781.14  202.14 784  198.5 784  C 194.86 784  192 781.14  192 777.5  C 192 773.86  194.86 771  198.5 771  Z " fill-rule="nonzero" fill="rgba(240, 240, 240, 1)" stroke="none" class="fill" />
  <path d="M 198.5 771.5  C 201.86 771.5  204.5 774.14  204.5 777.5  C 204.5 780.86  201.86 783.5  198.5 783.5  C 195.14 783.5  192.5 780.86  192.5 777.5  C 192.5 774.14  195.14 771.5  198.5 771.5  Z " stroke-width="1" stroke-dasharray="0" stroke="rgba(121, 121, 121, 1)" fill="none" class="stroke" stroke-dashoffset="0.5" />
  <path d="M 198.5 780.75  C 196.68 780.75  195.25 779.32  195.25 777.5  C 195.25 775.68  196.68 774.25  198.5 774.25  C 200.32 774.25  201.75 775.68  201.75 777.5  C 201.75 779.32  200.32 780.75  198.5 780.75  " fill-rule="nonzero" fill="rgba(121, 121, 121, 1)" stroke="none" class="stroke btn_check" />
</svg>