<?xml version="1.0" encoding="utf-8"?>
<svg version="1.1" xmlns:xlink="http://www.w3.org/1999/xlink" width="13px" height="13px" viewBox="192 829 13 13" xmlns="http://www.w3.org/2000/svg">
  <path d="M 198.5 829  C 202.14 829  205 831.86  205 835.5  C 205 839.14  202.14 842  198.5 842  C 194.86 842  192 839.14  192 835.5  C 192 831.86  194.86 829  198.5 829  Z " fill-rule="nonzero" fill="rgba(255, 255, 255, 1)" stroke="none" class="fill" />
  <path d="M 198.5 829.5  C 201.86 829.5  204.5 832.14  204.5 835.5  C 204.5 838.86  201.86 841.5  198.5 841.5  C 195.14 841.5  192.5 838.86  192.5 835.5  C 192.5 832.14  195.14 829.5  198.5 829.5  Z " stroke-width="1" stroke-dasharray="0" stroke="rgba(121, 121, 121, 1)" fill="none" class="stroke" stroke-dashoffset="0.5" />
  <path d="M 198.5 838.75  C 196.68 838.75  195.25 837.32  195.25 835.5  C 195.25 833.68  196.68 832.25  198.5 832.25  C 200.32 832.25  201.75 833.68  201.75 835.5  C 201.75 837.32  200.32 838.75  198.5 838.75  " fill-rule="nonzero" fill="rgba(121, 121, 121, 1)" stroke="none" class="stroke btn_check" />
</svg>