<?xml version="1.0" encoding="utf-8"?>
<svg version="1.1" xmlns:xlink="http://www.w3.org/1999/xlink" width="13px" height="13px" viewBox="809 712 13 13" xmlns="http://www.w3.org/2000/svg">
  <path d="M 815.5 712  C 819.14 712  822 714.86  822 718.5  C 822 722.14  819.14 725  815.5 725  C 811.86 725  809 722.14  809 718.5  C 809 714.86  811.86 712  815.5 712  Z " fill-rule="nonzero" fill="rgba(255, 255, 255, 1)" stroke="none" class="fill" />
  <path d="M 815.5 712.5  C 818.86 712.5  821.5 715.14  821.5 718.5  C 821.5 721.86  818.86 724.5  815.5 724.5  C 812.14 724.5  809.5 721.86  809.5 718.5  C 809.5 715.14  812.14 712.5  815.5 712.5  Z " stroke-width="1" stroke-dasharray="0" stroke="rgba(121, 121, 121, 1)" fill="none" class="stroke" stroke-dashoffset="0.5" />
  <path d="M 815.5 721.75  C 813.68 721.75  812.25 720.32  812.25 718.5  C 812.25 716.68  813.68 715.25  815.5 715.25  C 817.32 715.25  818.75 716.68  818.75 718.5  C 818.75 720.32  817.32 721.75  815.5 721.75  " fill-rule="nonzero" fill="rgba(121, 121, 121, 1)" stroke="none" class="stroke btn_check" />
</svg>