<?xml version="1.0" encoding="utf-8"?>
<svg version="1.1" xmlns:xlink="http://www.w3.org/1999/xlink" width="68px" height="61px" xmlns="http://www.w3.org/2000/svg">
  <defs>
    <pattern id="BGPattern" patternUnits="userSpaceOnUse" alignment="0 0" imageRepeat="None" />
    <mask fill="white" id="Clip282">
      <path d="M 0 61  L 0 0  L 68 0  L 68 61  L 0 61  Z " fill-rule="evenodd" />
    </mask>
  </defs>
  <g transform="matrix(1 0 0 1 -648 -909 )">
    <path d="M 0 61  L 0 0  L 68 0  L 68 61  L 0 61  Z " fill-rule="nonzero" fill="rgba(242, 242, 242, 1)" stroke="none" transform="matrix(1 0 0 1 648 909 )" class="fill" />
    <path d="M 0 61  L 0 0  L 68 0  L 68 61  L 0 61  Z " stroke-width="2" stroke-dasharray="0" stroke="rgba(121, 121, 121, 1)" fill="none" transform="matrix(1 0 0 1 648 909 )" class="stroke" mask="url(#Clip282)" />
    <path d="M 67.58509867264387 0.37219089659888843  L 0.4149013273561379 60.62780910340111  M 0.4149013273561379 0.37219089659888843  L 67.58509867264387 60.62780910340111  " stroke-width="1" stroke-dasharray="0" stroke="rgba(121, 121, 121, 1)" fill="none" transform="matrix(1 0 0 1 648 909 )" class="stroke" />
  </g>
</svg>