<?xml version="1.0" encoding="utf-8"?>
<svg version="1.1" xmlns:xlink="http://www.w3.org/1999/xlink" width="13px" height="13px" viewBox="192 789 13 13" xmlns="http://www.w3.org/2000/svg">
  <path d="M 198.5 789  C 202.14 789  205 791.86  205 795.5  C 205 799.14  202.14 802  198.5 802  C 194.86 802  192 799.14  192 795.5  C 192 791.86  194.86 789  198.5 789  Z " fill-rule="nonzero" fill="rgba(255, 255, 255, 1)" stroke="none" class="fill" />
  <path d="M 198.5 789.5  C 201.86 789.5  204.5 792.14  204.5 795.5  C 204.5 798.86  201.86 801.5  198.5 801.5  C 195.14 801.5  192.5 798.86  192.5 795.5  C 192.5 792.14  195.14 789.5  198.5 789.5  Z " stroke-width="1" stroke-dasharray="0" stroke="rgba(121, 121, 121, 1)" fill="none" class="stroke" stroke-dashoffset="0.5" />
  <path d="M 198.5 798.75  C 196.68 798.75  195.25 797.32  195.25 795.5  C 195.25 793.68  196.68 792.25  198.5 792.25  C 200.32 792.25  201.75 793.68  201.75 795.5  C 201.75 797.32  200.32 798.75  198.5 798.75  " fill-rule="nonzero" fill="rgba(121, 121, 121, 1)" stroke="none" class="stroke btn_check" />
</svg>