<?xml version="1.0" encoding="utf-8"?>
<svg version="1.1" xmlns:xlink="http://www.w3.org/1999/xlink" width="13px" height="13px" viewBox="663 712 13 13" xmlns="http://www.w3.org/2000/svg">
  <path d="M 669.5 712  C 673.14 712  676 714.86  676 718.5  C 676 722.14  673.14 725  669.5 725  C 665.86 725  663 722.14  663 718.5  C 663 714.86  665.86 712  669.5 712  Z " fill-rule="nonzero" fill="rgba(240, 240, 240, 1)" stroke="none" class="fill" />
  <path d="M 669.5 712.5  C 672.86 712.5  675.5 715.14  675.5 718.5  C 675.5 721.86  672.86 724.5  669.5 724.5  C 666.14 724.5  663.5 721.86  663.5 718.5  C 663.5 715.14  666.14 712.5  669.5 712.5  Z " stroke-width="1" stroke-dasharray="0" stroke="rgba(121, 121, 121, 1)" fill="none" class="stroke" stroke-dashoffset="0.5" />
  <path d="M 669.5 721.75  C 667.68 721.75  666.25 720.32  666.25 718.5  C 666.25 716.68  667.68 715.25  669.5 715.25  C 671.32 715.25  672.75 716.68  672.75 718.5  C 672.75 720.32  671.32 721.75  669.5 721.75  " fill-rule="nonzero" fill="rgba(121, 121, 121, 1)" stroke="none" class="stroke btn_check" />
</svg>