<?xml version="1.0" encoding="utf-8"?>
<svg version="1.1" xmlns:xlink="http://www.w3.org/1999/xlink" width="13px" height="13px" viewBox="292 771 13 13" xmlns="http://www.w3.org/2000/svg">
  <path d="M 298.5 771  C 302.14 771  305 773.86  305 777.5  C 305 781.14  302.14 784  298.5 784  C 294.86 784  292 781.14  292 777.5  C 292 773.86  294.86 771  298.5 771  Z " fill-rule="nonzero" fill="rgba(255, 255, 255, 1)" stroke="none" class="fill" />
  <path d="M 298.5 771.5  C 301.86 771.5  304.5 774.14  304.5 777.5  C 304.5 780.86  301.86 783.5  298.5 783.5  C 295.14 783.5  292.5 780.86  292.5 777.5  C 292.5 774.14  295.14 771.5  298.5 771.5  Z " stroke-width="1" stroke-dasharray="0" stroke="rgba(121, 121, 121, 1)" fill="none" class="stroke" stroke-dashoffset="0.5" />
  <path d="M 298.5 780.75  C 296.68 780.75  295.25 779.32  295.25 777.5  C 295.25 775.68  296.68 774.25  298.5 774.25  C 300.32 774.25  301.75 775.68  301.75 777.5  C 301.75 779.32  300.32 780.75  298.5 780.75  " fill-rule="nonzero" fill="rgba(121, 121, 121, 1)" stroke="none" class="stroke btn_check" />
</svg>