<?xml version="1.0" encoding="utf-8"?>
<svg version="1.1" xmlns:xlink="http://www.w3.org/1999/xlink" width="13px" height="13px" viewBox="663 755 13 13" xmlns="http://www.w3.org/2000/svg">
  <path d="M 669.5 755  C 673.14 755  676 757.86  676 761.5  C 676 765.14  673.14 768  669.5 768  C 665.86 768  663 765.14  663 761.5  C 663 757.86  665.86 755  669.5 755  Z " fill-rule="nonzero" fill="rgba(240, 240, 240, 1)" stroke="none" class="fill" />
  <path d="M 669.5 755.5  C 672.86 755.5  675.5 758.14  675.5 761.5  C 675.5 764.86  672.86 767.5  669.5 767.5  C 666.14 767.5  663.5 764.86  663.5 761.5  C 663.5 758.14  666.14 755.5  669.5 755.5  Z " stroke-width="1" stroke-dasharray="0" stroke="rgba(121, 121, 121, 1)" fill="none" class="stroke" stroke-dashoffset="0.5" />
  <path d="M 669.5 764.75  C 667.68 764.75  666.25 763.32  666.25 761.5  C 666.25 759.68  667.68 758.25  669.5 758.25  C 671.32 758.25  672.75 759.68  672.75 761.5  C 672.75 763.32  671.32 764.75  669.5 764.75  " fill-rule="nonzero" fill="rgba(121, 121, 121, 1)" stroke="none" class="stroke btn_check" />
</svg>