<?xml version="1.0" encoding="utf-8"?>
<svg version="1.1" xmlns:xlink="http://www.w3.org/1999/xlink" width="13px" height="13px" viewBox="919 755 13 13" xmlns="http://www.w3.org/2000/svg">
  <path d="M 925.5 755  C 929.14 755  932 757.86  932 761.5  C 932 765.14  929.14 768  925.5 768  C 921.86 768  919 765.14  919 761.5  C 919 757.86  921.86 755  925.5 755  Z " fill-rule="nonzero" fill="rgba(240, 240, 240, 1)" stroke="none" class="fill" />
  <path d="M 925.5 755.5  C 928.86 755.5  931.5 758.14  931.5 761.5  C 931.5 764.86  928.86 767.5  925.5 767.5  C 922.14 767.5  919.5 764.86  919.5 761.5  C 919.5 758.14  922.14 755.5  925.5 755.5  Z " stroke-width="1" stroke-dasharray="0" stroke="rgba(121, 121, 121, 1)" fill="none" class="stroke" stroke-dashoffset="0.5" />
  <path d="M 925.5 764.75  C 923.68 764.75  922.25 763.32  922.25 761.5  C 922.25 759.68  923.68 758.25  925.5 758.25  C 927.32 758.25  928.75 759.68  928.75 761.5  C 928.75 763.32  927.32 764.75  925.5 764.75  " fill-rule="nonzero" fill="rgba(121, 121, 121, 1)" stroke="none" class="stroke btn_check" />
</svg>