<?xml version="1.0" encoding="utf-8"?>
<svg version="1.1" xmlns:xlink="http://www.w3.org/1999/xlink" width="13px" height="13px" viewBox="640 636 13 13" xmlns="http://www.w3.org/2000/svg">
  <path d="M 646.5 636  C 650.14 636  653 638.86  653 642.5  C 653 646.14  650.14 649  646.5 649  C 642.86 649  640 646.14  640 642.5  C 640 638.86  642.86 636  646.5 636  Z " fill-rule="nonzero" fill="rgba(255, 255, 255, 1)" stroke="none" class="fill" />
  <path d="M 646.5 636.5  C 649.86 636.5  652.5 639.14  652.5 642.5  C 652.5 645.86  649.86 648.5  646.5 648.5  C 643.14 648.5  640.5 645.86  640.5 642.5  C 640.5 639.14  643.14 636.5  646.5 636.5  Z " stroke-width="1" stroke-dasharray="0" stroke="rgba(121, 121, 121, 1)" fill="none" class="stroke" stroke-dashoffset="0.5" />
  <path d="M 646.5 645.75  C 644.68 645.75  643.25 644.32  643.25 642.5  C 643.25 640.68  644.68 639.25  646.5 639.25  C 648.32 639.25  649.75 640.68  649.75 642.5  C 649.75 644.32  648.32 645.75  646.5 645.75  " fill-rule="nonzero" fill="rgba(121, 121, 121, 1)" stroke="none" class="stroke btn_check" />
</svg>