<?xml version="1.0" encoding="utf-8"?>
<svg version="1.1" xmlns:xlink="http://www.w3.org/1999/xlink" width="13px" height="13px" viewBox="919 712 13 13" xmlns="http://www.w3.org/2000/svg">
  <path d="M 925.5 712  C 929.14 712  932 714.86  932 718.5  C 932 722.14  929.14 725  925.5 725  C 921.86 725  919 722.14  919 718.5  C 919 714.86  921.86 712  925.5 712  Z " fill-rule="nonzero" fill="rgba(255, 255, 255, 1)" stroke="none" class="fill" />
  <path d="M 925.5 712.5  C 928.86 712.5  931.5 715.14  931.5 718.5  C 931.5 721.86  928.86 724.5  925.5 724.5  C 922.14 724.5  919.5 721.86  919.5 718.5  C 919.5 715.14  922.14 712.5  925.5 712.5  Z " stroke-width="1" stroke-dasharray="0" stroke="rgba(121, 121, 121, 1)" fill="none" class="stroke" stroke-dashoffset="0.5" />
  <path d="M 925.5 721.75  C 923.68 721.75  922.25 720.32  922.25 718.5  C 922.25 716.68  923.68 715.25  925.5 715.25  C 927.32 715.25  928.75 716.68  928.75 718.5  C 928.75 720.32  927.32 721.75  925.5 721.75  " fill-rule="nonzero" fill="rgba(121, 121, 121, 1)" stroke="none" class="stroke btn_check" />
</svg>